<svg id="svg" version="1.1" xmlns="http://www.w3.org/2000/svg" xmlns:xlink="http://www.w3.org/1999/xlink" width="400" height="148.01762114537445" viewBox="0, 0, 400,148.01762114537445"><g id="svgg"><path id="path0" d="M13.667 0.241 C 13.667 0.415,13.421 0.497,12.792 0.533 C 12.029 0.577,11.910 0.632,11.863 0.958 C 11.816 1.289,11.714 1.333,10.988 1.333 C 10.228 1.333,10.167 1.364,10.167 1.741 C 10.167 2.116,10.095 2.153,9.292 2.200 C 8.476 2.247,8.413 2.281,8.364 2.708 C 8.323 3.068,8.224 3.167,7.906 3.167 C 7.586 3.167,7.500 3.254,7.500 3.574 C 7.500 3.942,7.423 3.987,6.708 4.033 C 6.033 4.076,5.909 4.138,5.863 4.458 C 5.832 4.682,5.694 4.833,5.522 4.833 C 5.152 4.833,4.833 5.152,4.833 5.522 C 4.833 5.694,4.682 5.832,4.458 5.863 C 4.138 5.909,4.076 6.033,4.033 6.708 C 3.987 7.423,3.942 7.500,3.574 7.500 C 3.254 7.500,3.167 7.586,3.167 7.906 C 3.167 8.224,3.068 8.323,2.708 8.364 C 2.281 8.413,2.247 8.476,2.200 9.292 C 2.153 10.095,2.116 10.167,1.741 10.167 C 1.364 10.167,1.333 10.228,1.333 10.988 C 1.333 11.714,1.289 11.816,0.958 11.863 C 0.632 11.910,0.577 12.029,0.533 12.792 C 0.497 13.421,0.415 13.667,0.241 13.667 C 0.031 13.667,0.000 21.449,0.000 74.000 C 0.000 126.551,0.031 134.333,0.241 134.333 C 0.415 134.333,0.497 134.579,0.533 135.208 C 0.577 135.971,0.632 136.090,0.958 136.137 C 1.289 136.184,1.333 136.286,1.333 137.012 C 1.333 137.772,1.364 137.833,1.741 137.833 C 2.116 137.833,2.153 137.905,2.200 138.708 C 2.247 139.524,2.281 139.587,2.708 139.636 C 3.068 139.677,3.167 139.776,3.167 140.094 C 3.167 140.414,3.254 140.500,3.574 140.500 C 3.942 140.500,3.987 140.577,4.033 141.292 C 4.076 141.967,4.138 142.091,4.458 142.137 C 4.682 142.168,4.833 142.306,4.833 142.478 C 4.833 142.848,5.152 143.167,5.522 143.167 C 5.694 143.167,5.832 143.318,5.863 143.542 C 5.909 143.862,6.033 143.924,6.708 143.967 C 7.423 144.013,7.500 144.058,7.500 144.426 C 7.500 144.746,7.586 144.833,7.906 144.833 C 8.224 144.833,8.323 144.932,8.364 145.292 C 8.413 145.719,8.476 145.753,9.292 145.800 C 10.095 145.847,10.167 145.884,10.167 146.259 C 10.167 146.636,10.228 146.667,10.988 146.667 C 11.714 146.667,11.816 146.711,11.863 147.042 C 11.910 147.368,12.029 147.423,12.792 147.467 C 13.421 147.503,13.667 147.585,13.667 147.759 C 13.667 147.969,37.471 148.000,200.000 148.000 C 365.519 148.000,386.333 147.972,386.333 147.750 C 386.333 147.558,386.546 147.500,387.250 147.500 C 388.117 147.500,388.167 147.477,388.167 147.083 C 388.167 146.694,388.222 146.667,389.000 146.667 C 389.773 146.667,389.833 146.637,389.833 146.259 C 389.833 145.884,389.905 145.847,390.708 145.800 C 391.524 145.753,391.587 145.719,391.636 145.292 C 391.677 144.932,391.776 144.833,392.094 144.833 C 392.414 144.833,392.500 144.746,392.500 144.426 C 392.500 144.058,392.577 144.013,393.292 143.967 C 393.967 143.924,394.091 143.862,394.137 143.542 C 394.168 143.318,394.306 143.167,394.478 143.167 C 394.848 143.167,395.167 142.848,395.167 142.478 C 395.167 142.306,395.318 142.168,395.542 142.137 C 395.862 142.091,395.924 141.967,395.967 141.292 C 396.013 140.577,396.058 140.500,396.426 140.500 C 396.746 140.500,396.833 140.414,396.833 140.094 C 396.833 139.776,396.932 139.677,397.292 139.636 C 397.719 139.587,397.753 139.524,397.800 138.708 C 397.847 137.905,397.884 137.833,398.259 137.833 C 398.636 137.833,398.667 137.772,398.667 137.012 C 398.667 136.286,398.711 136.184,399.042 136.137 C 399.368 136.090,399.423 135.971,399.467 135.208 C 399.503 134.579,399.585 134.333,399.759 134.333 C 399.969 134.333,400.000 126.551,400.000 74.000 C 400.000 21.449,399.969 13.667,399.759 13.667 C 399.585 13.667,399.503 13.421,399.467 12.792 C 399.423 12.029,399.368 11.910,399.042 11.863 C 398.711 11.816,398.667 11.714,398.667 10.988 C 398.667 10.228,398.636 10.167,398.259 10.167 C 397.884 10.167,397.847 10.095,397.800 9.292 C 397.753 8.476,397.719 8.413,397.292 8.364 C 396.932 8.323,396.833 8.224,396.833 7.906 C 396.833 7.586,396.746 7.500,396.426 7.500 C 396.058 7.500,396.013 7.423,395.967 6.708 C 395.924 6.033,395.862 5.909,395.542 5.863 C 395.318 5.832,395.167 5.694,395.167 5.522 C 395.167 5.152,394.848 4.833,394.478 4.833 C 394.306 4.833,394.168 4.682,394.137 4.458 C 394.091 4.138,393.967 4.076,393.292 4.033 C 392.577 3.987,392.500 3.942,392.500 3.574 C 392.500 3.254,392.414 3.167,392.094 3.167 C 391.776 3.167,391.677 3.068,391.636 2.708 C 391.587 2.281,391.524 2.247,390.708 2.200 C 389.905 2.153,389.833 2.116,389.833 1.741 C 389.833 1.364,389.772 1.333,389.012 1.333 C 388.286 1.333,388.184 1.289,388.137 0.958 C 388.090 0.632,387.971 0.577,387.208 0.533 C 386.579 0.497,386.333 0.415,386.333 0.241 C 386.333 0.031,362.529 0.000,200.000 0.000 C 37.471 0.000,13.667 0.031,13.667 0.241 M384.622 3.875 C 385.101 4.127,385.635 4.333,385.808 4.333 C 385.980 4.333,386.321 4.490,386.563 4.681 C 386.806 4.872,387.267 5.101,387.587 5.189 C 387.907 5.277,388.300 5.486,388.459 5.652 C 388.619 5.819,388.933 6.050,389.156 6.167 C 390.108 6.663,392.709 9.178,393.466 10.333 C 393.796 10.838,394.239 11.462,394.450 11.721 C 394.661 11.980,394.833 12.331,394.833 12.500 C 394.833 12.669,395.015 13.023,395.236 13.286 C 395.458 13.550,395.692 14.046,395.756 14.391 C 395.821 14.735,395.977 15.119,396.102 15.245 C 396.663 15.806,396.673 16.861,396.628 74.500 L 396.583 131.917 396.125 132.789 C 395.873 133.268,395.667 133.797,395.667 133.965 C 395.667 134.132,395.479 134.523,395.250 134.833 C 395.021 135.144,394.833 135.534,394.833 135.699 C 394.833 135.865,394.689 136.144,394.513 136.321 C 394.336 136.497,394.100 136.816,393.987 137.029 C 393.309 138.314,390.314 141.309,389.029 141.987 C 388.816 142.100,388.497 142.336,388.321 142.513 C 388.144 142.689,387.865 142.833,387.699 142.833 C 387.534 142.833,387.144 143.021,386.833 143.250 C 386.523 143.479,386.159 143.667,386.025 143.667 C 385.892 143.667,385.362 143.873,384.849 144.125 L 383.917 144.583 200.000 144.583 L 16.083 144.583 15.500 144.226 C 15.179 144.030,14.654 143.814,14.333 143.746 C 14.012 143.679,13.538 143.446,13.279 143.228 C 13.020 143.011,12.669 142.833,12.500 142.833 C 12.331 142.833,11.980 142.661,11.721 142.450 C 11.462 142.239,10.838 141.796,10.333 141.466 C 9.182 140.712,6.669 138.114,6.164 137.156 C 6.047 136.933,5.774 136.538,5.559 136.279 C 5.343 136.020,5.167 135.678,5.167 135.520 C 5.167 135.361,4.979 134.977,4.750 134.667 C 4.521 134.356,4.333 133.965,4.333 133.798 C 4.333 133.631,4.127 133.101,3.875 132.622 L 3.417 131.750 3.417 74.000 L 3.417 16.250 3.875 15.378 C 4.127 14.899,4.333 14.369,4.333 14.202 C 4.333 14.035,4.517 13.649,4.741 13.345 C 4.966 13.041,5.196 12.577,5.254 12.315 C 5.312 12.052,5.431 11.792,5.520 11.738 C 5.673 11.643,6.366 10.659,6.777 9.953 C 7.035 9.510,9.703 6.833,9.887 6.833 C 9.966 6.833,10.230 6.679,10.474 6.491 C 11.894 5.393,12.240 5.167,12.491 5.167 C 12.643 5.167,13.023 4.979,13.333 4.750 C 13.644 4.521,14.052 4.333,14.241 4.333 C 14.429 4.332,14.843 4.174,15.160 3.981 C 15.477 3.787,16.077 3.571,16.493 3.501 C 16.909 3.430,99.712 3.382,200.500 3.394 L 383.750 3.417 384.622 3.875 M45.167 61.674 C 45.167 77.773,45.175 78.203,45.497 78.909 C 45.678 79.308,45.873 80.072,45.930 80.608 C 45.987 81.145,46.170 81.779,46.337 82.017 C 46.504 82.256,46.729 82.778,46.836 83.178 C 46.944 83.578,47.175 84.086,47.349 84.308 C 47.524 84.530,47.667 84.785,47.667 84.875 C 47.667 84.966,47.873 85.280,48.125 85.574 C 48.377 85.868,48.808 86.395,49.083 86.745 C 49.882 87.760,52.259 89.667,52.726 89.667 C 52.851 89.667,53.224 89.850,53.555 90.075 C 53.886 90.299,54.422 90.533,54.746 90.594 C 55.071 90.655,55.515 90.845,55.734 91.017 C 55.968 91.201,56.634 91.400,57.357 91.502 C 58.032 91.596,59.015 91.822,59.542 92.003 C 60.849 92.453,71.293 92.497,72.417 92.058 C 72.783 91.915,73.711 91.696,74.479 91.573 C 75.247 91.449,75.997 91.238,76.146 91.103 C 76.295 90.968,76.792 90.766,77.250 90.653 C 77.708 90.540,78.257 90.313,78.469 90.150 C 78.681 89.986,79.112 89.767,79.427 89.663 C 79.742 89.559,80.000 89.406,80.000 89.323 C 80.000 89.239,80.244 89.067,80.542 88.940 C 80.840 88.813,81.707 88.043,82.468 87.229 C 84.207 85.372,84.333 85.217,84.333 84.942 C 84.333 84.818,84.545 84.424,84.804 84.067 C 85.063 83.709,85.327 83.159,85.389 82.844 C 85.452 82.529,85.620 82.143,85.762 81.986 C 85.904 81.829,86.129 81.025,86.262 80.199 C 86.395 79.373,86.616 78.380,86.752 77.994 C 86.965 77.391,87.000 75.020,87.000 61.227 L 87.000 45.163 80.125 45.206 L 73.250 45.250 73.167 60.000 C 73.101 71.575,73.037 74.831,72.869 75.124 C 72.752 75.330,72.577 75.930,72.482 76.458 C 72.197 78.028,70.723 80.101,69.667 80.415 C 69.438 80.484,69.111 80.662,68.941 80.811 C 68.293 81.383,64.204 81.294,62.956 80.682 C 61.545 79.989,59.833 78.256,59.833 77.521 C 59.833 77.328,59.666 76.776,59.463 76.293 L 59.092 75.417 59.004 60.333 L 58.917 45.250 52.042 45.206 L 45.167 45.163 45.167 61.674 M136.872 49.456 L 136.917 53.750 143.118 53.794 C 149.151 53.836,149.324 53.828,149.496 53.507 C 149.610 53.294,149.657 51.772,149.628 49.214 L 149.583 45.250 143.206 45.206 L 136.828 45.163 136.872 49.456 M117.000 57.160 C 116.771 57.237,116.133 57.308,115.583 57.318 C 114.285 57.341,112.599 57.619,112.532 57.821 C 112.503 57.909,112.090 58.108,111.614 58.265 C 111.139 58.421,110.571 58.688,110.353 58.858 C 110.134 59.028,109.895 59.167,109.821 59.167 C 109.748 59.167,109.106 59.731,108.396 60.421 C 106.799 61.972,106.646 61.915,106.507 59.710 C 106.377 57.645,106.987 57.833,100.410 57.833 L 94.673 57.833 94.582 58.208 C 94.533 58.415,94.512 65.971,94.538 75.000 L 94.583 91.417 100.359 91.460 C 103.872 91.487,106.303 91.440,106.567 91.340 L 107.000 91.175 107.000 82.090 C 107.000 76.675,107.067 72.718,107.165 72.294 C 107.256 71.903,107.372 71.235,107.423 70.808 C 107.474 70.382,107.662 69.864,107.841 69.658 C 108.020 69.451,108.167 69.221,108.167 69.147 C 108.167 68.871,109.114 68.059,110.083 67.505 C 111.923 66.453,114.384 66.818,115.499 68.308 C 115.681 68.551,115.890 68.825,115.964 68.917 C 116.038 69.008,116.160 69.185,116.236 69.309 C 116.575 69.862,116.713 73.056,116.775 81.797 L 116.841 91.178 117.271 91.341 C 117.529 91.439,119.997 91.487,123.475 91.460 L 129.250 91.417 129.293 78.933 L 129.335 66.450 128.927 65.233 C 128.702 64.564,128.468 63.749,128.407 63.423 C 128.346 63.097,128.228 62.788,128.145 62.737 C 128.063 62.686,127.843 62.346,127.657 61.982 C 127.472 61.618,127.191 61.174,127.035 60.996 C 126.276 60.135,125.460 59.333,125.343 59.333 C 125.271 59.333,124.929 59.108,124.583 58.833 C 124.237 58.558,123.840 58.333,123.700 58.333 C 123.560 58.333,123.130 58.148,122.743 57.922 C 122.223 57.617,121.614 57.463,120.395 57.330 C 117.595 57.024,117.428 57.016,117.000 57.160 M136.916 58.208 C 136.866 58.415,136.846 65.971,136.871 75.000 L 136.917 91.417 143.064 91.460 C 147.462 91.492,149.276 91.450,149.439 91.315 C 149.720 91.082,149.783 58.995,149.504 58.261 L 149.342 57.833 143.174 57.833 L 137.006 57.833 136.916 58.208 " stroke="none" fill="#fbfbfa" fill-rule="evenodd"></path><path id="path1" d="M17.523 4.147 C 17.308 4.333,16.690 4.531,16.000 4.633 C 15.306 4.736,14.666 4.941,14.411 5.141 C 14.176 5.326,13.771 5.524,13.509 5.581 C 13.248 5.639,12.903 5.831,12.741 6.009 C 12.580 6.188,12.348 6.333,12.226 6.333 C 12.103 6.333,11.659 6.596,11.239 6.917 C 10.818 7.237,10.408 7.500,10.327 7.500 C 10.246 7.500,9.799 7.875,9.333 8.333 C 8.868 8.792,8.415 9.167,8.327 9.167 C 8.239 9.167,8.167 9.275,8.167 9.407 C 8.167 9.540,8.032 9.746,7.867 9.866 C 7.702 9.985,7.471 10.320,7.353 10.609 C 7.236 10.897,6.958 11.304,6.737 11.513 C 6.515 11.721,6.333 12.017,6.333 12.170 C 6.333 12.323,6.188 12.580,6.009 12.741 C 5.831 12.903,5.639 13.248,5.581 13.509 C 5.524 13.771,5.326 14.176,5.141 14.411 C 4.941 14.666,4.736 15.306,4.633 16.000 C 4.531 16.690,4.333 17.308,4.147 17.523 C 3.645 18.102,3.656 129.296,4.159 130.399 C 4.338 130.792,4.560 131.586,4.653 132.162 C 4.746 132.739,4.936 133.337,5.076 133.491 C 5.215 133.646,5.417 134.029,5.525 134.344 C 5.632 134.659,5.858 135.096,6.027 135.314 C 6.195 135.533,6.333 135.785,6.333 135.875 C 6.333 135.966,6.558 136.296,6.833 136.609 C 7.108 136.922,7.333 137.289,7.333 137.424 C 7.333 137.558,7.521 137.832,7.750 138.031 C 7.979 138.230,8.167 138.494,8.167 138.618 C 8.167 138.741,8.348 138.910,8.569 138.995 C 8.790 139.079,9.020 139.302,9.080 139.490 C 9.140 139.679,9.295 139.833,9.424 139.833 C 9.553 139.833,9.782 140.021,9.932 140.250 C 10.082 140.479,10.347 140.667,10.521 140.667 C 10.694 140.667,11.072 140.892,11.360 141.167 C 11.647 141.442,11.974 141.667,12.086 141.667 C 12.197 141.667,12.482 141.819,12.720 142.006 C 12.957 142.193,13.398 142.430,13.701 142.533 C 14.003 142.636,14.420 142.851,14.627 143.011 C 14.834 143.170,15.452 143.353,16.000 143.417 C 16.575 143.483,17.166 143.666,17.399 143.849 C 17.964 144.293,382.014 144.356,382.505 143.913 C 382.659 143.773,383.258 143.575,383.835 143.474 C 384.412 143.372,385.293 143.074,385.792 142.811 C 386.292 142.548,386.796 142.333,386.913 142.333 C 387.030 142.333,387.223 142.217,387.341 142.074 C 387.460 141.931,387.807 141.710,388.112 141.582 C 388.417 141.455,388.667 141.280,388.667 141.193 C 388.667 141.107,388.967 140.916,389.333 140.769 C 389.700 140.623,390.000 140.429,390.000 140.339 C 390.000 140.249,390.225 140.059,390.500 139.917 C 390.775 139.774,391.000 139.541,391.000 139.397 C 391.000 139.253,391.153 139.095,391.340 139.047 C 391.527 138.998,391.791 138.742,391.928 138.479 C 392.064 138.215,392.249 138.000,392.339 138.000 C 392.429 138.000,392.623 137.700,392.769 137.333 C 392.916 136.967,393.105 136.667,393.188 136.667 C 393.272 136.667,393.428 136.460,393.535 136.208 C 393.643 135.956,393.857 135.600,394.011 135.417 C 394.165 135.233,394.418 134.695,394.572 134.221 C 394.726 133.747,394.955 133.273,395.082 133.168 C 395.209 133.063,395.363 132.568,395.426 132.068 C 395.488 131.569,395.680 130.883,395.853 130.545 C 396.348 129.573,396.345 18.029,395.849 17.399 C 395.666 17.166,395.483 16.575,395.417 16.000 C 395.353 15.452,395.170 14.834,395.011 14.627 C 394.851 14.420,394.636 14.003,394.533 13.701 C 394.430 13.398,394.193 12.957,394.006 12.720 C 393.819 12.482,393.667 12.197,393.667 12.086 C 393.667 11.974,393.442 11.647,393.167 11.360 C 392.892 11.072,392.667 10.694,392.667 10.521 C 392.667 10.347,392.479 10.082,392.250 9.932 C 392.021 9.782,391.833 9.553,391.833 9.424 C 391.833 9.295,391.679 9.140,391.490 9.080 C 391.302 9.020,391.079 8.790,390.995 8.569 C 390.910 8.348,390.741 8.167,390.618 8.167 C 390.494 8.167,390.230 7.979,390.031 7.750 C 389.832 7.521,389.585 7.333,389.481 7.333 C 389.378 7.333,389.038 7.108,388.725 6.833 C 388.411 6.558,388.055 6.333,387.933 6.333 C 387.811 6.333,387.533 6.195,387.314 6.027 C 387.096 5.858,386.659 5.632,386.344 5.525 C 386.029 5.417,385.646 5.215,385.491 5.076 C 385.337 4.936,384.734 4.745,384.151 4.651 C 383.568 4.557,382.856 4.335,382.568 4.157 C 381.756 3.655,18.101 3.645,17.523 4.147 M59.346 44.680 L 59.826 45.194 59.892 59.639 C 59.958 74.230,60.060 76.917,60.554 77.193 C 60.694 77.272,60.892 77.588,60.993 77.897 C 61.874 80.566,67.996 81.244,70.278 78.925 C 70.767 78.428,71.167 77.914,71.167 77.783 C 71.167 77.652,71.335 77.330,71.542 77.068 L 71.917 76.592 72.004 60.754 C 72.052 52.044,72.108 44.897,72.129 44.873 C 72.817 44.072,86.535 43.710,87.227 44.475 C 87.485 44.759,87.503 46.129,87.461 62.433 L 87.417 80.083 87.061 80.667 C 86.866 80.987,86.655 81.608,86.592 82.045 C 86.530 82.483,86.342 82.970,86.175 83.129 C 86.009 83.287,85.820 83.660,85.756 83.958 C 85.692 84.256,85.509 84.593,85.349 84.708 C 85.188 84.823,84.971 85.166,84.866 85.471 C 84.761 85.776,84.486 86.250,84.254 86.525 C 84.023 86.800,83.833 87.090,83.833 87.168 C 83.833 87.247,83.695 87.355,83.525 87.409 C 83.356 87.462,83.132 87.692,83.029 87.920 C 82.925 88.147,82.735 88.333,82.606 88.333 C 82.477 88.333,82.253 88.515,82.107 88.737 C 81.961 88.960,81.688 89.190,81.499 89.250 C 81.310 89.310,80.960 89.541,80.720 89.763 C 80.481 89.985,80.173 90.167,80.036 90.167 C 79.900 90.167,79.614 90.354,79.402 90.583 C 79.161 90.843,78.834 91.000,78.532 91.000 C 78.254 91.000,77.867 91.168,77.622 91.396 C 77.327 91.669,76.897 91.829,76.236 91.911 C 75.709 91.977,75.080 92.177,74.838 92.356 C 74.489 92.614,74.019 92.701,72.574 92.777 C 71.467 92.835,70.605 92.963,70.381 93.103 C 69.827 93.449,62.388 93.427,61.926 93.078 C 61.706 92.912,61.173 92.831,60.260 92.826 C 58.632 92.817,57.497 92.616,57.260 92.294 C 57.161 92.160,56.641 92.004,56.083 91.940 C 55.502 91.874,54.892 91.686,54.627 91.493 C 54.375 91.309,53.943 91.114,53.665 91.058 C 53.387 91.002,52.993 90.781,52.788 90.565 C 52.584 90.349,52.296 90.171,52.148 90.170 C 51.899 90.167,51.309 89.772,50.103 88.803 C 49.645 88.435,48.503 87.297,47.875 86.585 C 47.455 86.107,46.500 84.495,46.500 84.262 C 46.500 84.154,46.316 83.815,46.090 83.509 C 45.865 83.204,45.628 82.608,45.565 82.186 C 45.502 81.764,45.303 81.219,45.122 80.976 C 44.859 80.620,44.778 80.168,44.707 78.684 C 44.647 77.420,44.548 76.776,44.393 76.647 C 44.205 76.491,44.167 73.796,44.167 60.826 L 44.167 45.192 44.679 44.679 L 45.192 44.167 52.029 44.167 L 58.866 44.167 59.346 44.680 M149.821 44.606 C 150.482 45.446,150.302 54.265,149.615 54.702 C 149.163 54.989,136.965 54.853,136.638 54.558 C 136.194 54.155,136.167 44.960,136.609 44.471 C 136.867 44.186,137.293 44.167,143.180 44.167 L 149.476 44.167 149.821 44.606 M170.130 45.093 L 170.500 45.352 170.500 62.172 L 170.500 78.991 170.992 79.246 C 171.416 79.465,172.811 79.500,181.153 79.500 C 190.541 79.500,190.827 79.509,190.994 79.822 C 191.254 80.308,191.228 91.205,190.967 91.467 C 190.676 91.757,156.490 91.757,156.200 91.467 C 155.909 91.176,155.909 45.324,156.200 45.033 C 156.537 44.696,169.643 44.752,170.130 45.093 M273.029 45.109 C 273.520 45.554,273.503 91.231,273.011 91.494 C 272.807 91.603,270.603 91.667,267.000 91.667 C 260.437 91.667,260.668 91.714,260.664 90.369 C 260.660 88.809,260.246 88.712,259.083 90.000 C 258.900 90.203,258.450 90.520,258.083 90.704 C 257.717 90.888,257.304 91.133,257.167 91.247 C 257.029 91.362,256.429 91.620,255.833 91.822 C 249.653 93.908,241.696 91.112,239.610 86.121 C 239.486 85.825,239.261 85.480,239.109 85.355 C 238.957 85.229,238.831 85.041,238.828 84.938 C 238.825 84.835,238.600 84.302,238.328 83.754 C 238.056 83.207,237.833 82.622,237.833 82.456 C 237.833 82.290,237.691 81.875,237.518 81.535 C 237.344 81.194,237.114 80.316,237.006 79.583 C 236.898 78.850,236.702 77.621,236.571 76.853 C 236.266 75.061,236.271 73.986,236.597 71.737 C 236.742 70.736,236.920 69.467,236.993 68.917 C 237.145 67.770,238.076 64.877,238.414 64.502 C 238.539 64.363,238.689 64.055,238.749 63.818 C 238.808 63.580,239.152 62.980,239.513 62.484 C 239.874 61.989,240.316 61.358,240.496 61.083 C 241.123 60.124,242.567 58.989,244.000 58.329 C 244.412 58.138,244.950 57.874,245.194 57.741 C 248.768 55.790,255.751 56.770,258.887 59.663 L 259.523 60.250 259.845 59.857 C 260.152 59.481,260.167 59.129,260.167 52.309 L 260.167 45.156 260.542 45.005 C 261.295 44.702,272.684 44.797,273.029 45.109 M121.336 56.608 C 121.656 56.801,122.253 57.000,122.665 57.052 C 123.097 57.106,123.520 57.275,123.665 57.452 C 123.803 57.621,124.228 57.852,124.608 57.964 C 124.988 58.077,125.342 58.282,125.394 58.418 C 125.447 58.555,125.590 58.667,125.713 58.667 C 125.836 58.667,126.254 59.023,126.640 59.458 C 127.027 59.894,127.483 60.400,127.654 60.583 C 127.824 60.767,128.012 61.078,128.071 61.276 C 128.131 61.474,128.285 61.676,128.414 61.726 C 128.543 61.776,128.735 62.139,128.840 62.533 C 128.944 62.927,129.192 63.425,129.390 63.638 L 129.750 64.027 129.796 77.838 C 129.842 91.563,129.840 91.651,129.505 91.831 C 128.819 92.198,116.517 91.977,116.236 91.593 C 116.038 91.322,115.999 89.601,115.996 81.010 C 115.993 71.084,115.982 70.736,115.667 70.333 C 115.487 70.104,115.339 69.788,115.337 69.631 C 115.315 67.967,110.935 67.275,109.593 68.724 C 109.367 68.967,109.114 69.167,109.030 69.167 C 108.945 69.167,108.782 69.506,108.665 69.921 C 108.549 70.336,108.333 70.743,108.185 70.826 C 107.944 70.961,107.908 72.026,107.833 81.230 C 107.768 89.329,107.705 91.529,107.533 91.700 C 107.102 92.132,94.499 92.095,93.946 91.660 L 93.500 91.309 93.500 74.514 L 93.500 57.718 93.851 57.401 C 94.180 57.103,94.575 57.080,100.358 57.036 L 106.514 56.988 107.007 57.481 C 107.421 57.895,107.500 58.107,107.500 58.803 C 107.500 59.741,107.831 60.048,108.230 59.478 C 108.496 59.098,110.093 58.000,110.381 58.000 C 110.482 58.000,110.844 57.807,111.184 57.571 C 111.557 57.313,112.171 57.092,112.724 57.017 C 113.231 56.948,113.766 56.791,113.915 56.668 C 114.664 56.046,120.328 56.000,121.336 56.608 M217.667 57.001 C 218.079 57.091,218.942 57.268,219.583 57.394 C 221.355 57.744,224.635 59.044,224.923 59.510 C 224.978 59.599,225.317 59.822,225.678 60.006 C 226.294 60.320,229.000 62.906,229.000 63.181 C 229.000 63.251,229.175 63.520,229.389 63.779 C 229.752 64.220,230.342 65.283,231.156 66.967 C 232.310 69.350,232.998 75.654,232.371 78.083 C 232.276 78.450,232.037 79.378,231.840 80.145 C 231.643 80.912,231.381 81.699,231.257 81.895 C 231.134 82.090,230.984 82.485,230.924 82.771 C 230.865 83.058,230.632 83.541,230.408 83.845 C 230.184 84.149,230.000 84.490,230.000 84.602 C 230.000 85.280,226.943 88.526,225.452 89.432 C 225.012 89.698,224.395 90.082,224.080 90.284 C 223.765 90.487,223.224 90.728,222.878 90.822 C 222.533 90.915,222.088 91.105,221.891 91.244 C 221.693 91.383,221.131 91.578,220.641 91.677 C 220.151 91.776,219.375 91.983,218.917 92.137 C 216.471 92.958,208.540 92.368,205.917 91.171 C 205.550 91.003,204.961 90.744,204.608 90.594 C 202.786 89.823,200.043 87.630,199.067 86.167 C 198.854 85.846,198.445 85.253,198.159 84.849 C 197.249 83.564,196.807 82.421,195.830 78.833 C 195.318 76.950,195.500 71.115,196.131 69.215 C 197.175 66.071,197.480 65.299,197.826 64.917 C 197.992 64.733,198.244 64.352,198.387 64.069 C 199.311 62.240,204.397 58.167,205.757 58.167 C 205.896 58.167,206.439 57.988,206.963 57.769 C 209.125 56.867,215.082 56.440,217.667 57.001 M294.208 56.834 C 294.735 56.925,295.560 57.068,296.042 57.152 C 297.215 57.355,299.171 58.372,300.071 59.246 C 300.502 59.665,301.007 59.988,301.301 60.031 L 301.799 60.104 301.867 59.032 C 301.970 57.415,301.604 57.500,308.443 57.500 C 314.159 57.500,314.327 57.509,314.501 57.835 C 314.626 58.069,314.664 63.329,314.626 75.376 L 314.572 92.583 314.114 93.833 C 313.863 94.521,313.570 95.233,313.463 95.417 C 313.357 95.600,313.125 96.047,312.947 96.411 C 312.114 98.115,308.936 101.333,308.086 101.333 C 307.996 101.333,307.545 101.512,307.086 101.731 C 302.187 104.061,291.291 104.024,286.406 101.661 C 286.033 101.481,285.658 101.333,285.572 101.333 C 283.690 101.333,279.059 94.614,279.561 92.612 L 279.673 92.167 285.925 92.167 L 292.177 92.167 292.713 92.772 C 293.009 93.105,293.331 93.525,293.431 93.704 C 293.756 94.292,295.037 95.168,295.967 95.439 C 299.234 96.388,301.833 92.784,301.833 87.305 L 301.833 86.167 301.345 86.167 C 301.020 86.167,300.745 86.309,300.522 86.593 C 298.146 89.614,290.391 90.652,286.355 88.489 C 286.025 88.312,285.670 88.167,285.567 88.167 C 285.396 88.167,284.960 87.863,283.598 86.797 C 280.039 84.008,278.297 79.654,278.111 73.083 C 278.037 70.462,279.005 65.835,279.868 64.686 C 280.032 64.467,280.167 64.201,280.167 64.094 C 280.167 62.945,284.348 58.765,286.013 58.249 C 286.235 58.180,286.704 57.979,287.056 57.801 C 288.578 57.033,292.383 56.519,294.208 56.834 M340.250 56.828 C 342.785 57.086,344.920 57.493,345.917 57.908 C 346.467 58.138,347.029 58.333,347.167 58.343 C 347.445 58.362,348.898 59.156,350.020 59.902 C 351.848 61.117,354.482 64.410,355.118 66.275 C 355.248 66.659,355.500 67.257,355.678 67.605 C 355.855 67.953,356.000 68.401,356.000 68.601 C 356.000 68.801,356.153 69.461,356.340 70.067 C 356.922 71.950,357.225 76.939,356.780 77.309 C 356.626 77.436,352.973 77.505,344.621 77.537 C 335.670 77.572,332.634 77.633,332.485 77.782 C 331.885 78.382,333.816 82.038,335.257 83.031 C 337.308 84.444,341.801 84.027,343.667 82.251 C 344.412 81.541,344.778 81.500,350.324 81.500 C 356.149 81.500,356.065 81.485,356.036 82.509 C 356.028 82.782,355.823 83.324,355.580 83.711 C 355.337 84.099,354.899 84.801,354.606 85.270 C 353.866 86.458,351.779 88.547,350.583 89.297 C 349.022 90.277,348.942 90.324,348.500 90.525 C 348.271 90.629,347.702 90.890,347.235 91.106 C 346.768 91.322,345.981 91.575,345.485 91.668 C 344.989 91.761,344.171 91.967,343.667 92.126 C 341.030 92.955,332.528 92.298,330.644 91.119 C 330.427 90.984,330.025 90.822,329.750 90.759 C 329.475 90.697,328.987 90.480,328.667 90.277 C 327.790 89.723,327.473 89.534,326.833 89.185 C 326.055 88.760,323.719 86.458,323.010 85.417 C 322.697 84.958,322.301 84.374,322.128 84.119 C 321.955 83.863,321.705 83.345,321.572 82.967 C 321.438 82.588,321.245 82.178,321.143 82.054 C 320.956 81.830,320.533 80.278,320.059 78.083 C 319.693 76.388,319.836 71.617,320.292 70.333 C 320.471 69.829,320.672 69.117,320.739 68.750 C 320.806 68.383,320.996 67.858,321.160 67.583 C 321.325 67.308,321.545 66.821,321.649 66.500 C 321.836 65.928,322.117 65.459,323.381 63.617 C 325.522 60.497,330.015 57.714,333.833 57.143 C 334.521 57.040,335.421 56.901,335.833 56.834 C 336.852 56.667,338.642 56.665,340.250 56.828 M149.760 57.237 C 150.217 57.571,150.361 91.281,149.907 91.736 C 149.586 92.056,137.243 92.142,136.656 91.827 C 136.176 91.571,136.146 57.459,136.625 57.180 C 137.121 56.891,149.360 56.944,149.760 57.237 M337.167 65.392 C 334.972 66.050,333.781 67.100,332.976 69.086 L 332.535 70.173 332.888 70.420 C 333.410 70.785,344.025 70.789,344.328 70.423 C 344.706 69.968,343.826 67.797,342.886 66.864 C 341.500 65.489,338.995 64.845,337.167 65.392 M213.417 66.292 C 209.859 66.979,208.486 69.697,208.717 75.594 C 208.916 80.661,210.347 82.675,213.833 82.793 C 216.608 82.886,217.940 81.831,218.916 78.768 C 219.572 76.707,219.490 71.755,218.769 69.917 C 217.865 67.613,215.361 65.916,213.417 66.292 M254.500 66.344 C 253.629 66.506,252.451 67.030,251.902 67.500 C 249.940 69.181,248.893 74.279,249.830 77.583 C 250.012 78.225,250.235 79.050,250.326 79.417 C 250.527 80.224,251.775 81.698,252.819 82.360 C 254.553 83.459,258.238 82.716,259.056 81.102 C 259.201 80.817,259.430 80.396,259.564 80.167 C 261.469 76.922,260.869 69.818,258.502 67.608 C 257.617 66.780,255.592 66.141,254.500 66.344 M296.250 66.291 C 290.433 67.272,289.180 77.060,294.426 80.550 C 295.413 81.208,298.255 81.227,299.202 80.583 C 299.540 80.354,299.887 80.167,299.975 80.167 C 300.118 80.167,300.566 79.552,301.118 78.598 C 302.700 75.866,302.431 70.545,300.595 68.262 C 299.636 67.069,297.468 66.086,296.250 66.291 " stroke="none" fill="#e31b33" fill-rule="evenodd"></path><path id="path2" d="M156.200 45.033 C 155.909 45.324,155.909 91.176,156.200 91.467 C 156.490 91.757,190.676 91.757,190.967 91.467 C 191.228 91.205,191.254 80.308,190.994 79.822 C 190.827 79.509,190.541 79.500,181.153 79.500 C 172.811 79.500,171.416 79.465,170.992 79.246 L 170.500 78.991 170.500 62.172 L 170.500 45.352 170.130 45.093 C 169.643 44.752,156.537 44.696,156.200 45.033 M260.542 45.005 L 260.167 45.156 260.167 52.309 C 260.167 59.129,260.152 59.481,259.845 59.857 L 259.523 60.250 258.887 59.663 C 256.767 57.708,253.084 56.487,250.087 56.746 C 248.394 56.892,245.773 57.425,245.194 57.741 C 244.950 57.874,244.412 58.138,244.000 58.329 C 242.567 58.989,241.123 60.124,240.496 61.083 C 240.316 61.358,239.874 61.989,239.513 62.484 C 239.152 62.980,238.808 63.580,238.749 63.818 C 238.689 64.055,238.539 64.363,238.414 64.502 C 238.076 64.877,237.145 67.770,236.993 68.917 C 236.920 69.467,236.742 70.736,236.597 71.737 C 236.271 73.986,236.266 75.061,236.571 76.853 C 236.702 77.621,236.898 78.850,237.006 79.583 C 237.114 80.316,237.344 81.194,237.518 81.535 C 237.691 81.875,237.833 82.290,237.833 82.456 C 237.833 82.622,238.056 83.207,238.328 83.754 C 238.600 84.302,238.825 84.835,238.828 84.938 C 238.831 85.041,238.957 85.229,239.109 85.355 C 239.261 85.480,239.486 85.825,239.610 86.121 C 241.696 91.112,249.653 93.908,255.833 91.822 C 256.429 91.620,257.029 91.362,257.167 91.247 C 257.304 91.133,257.717 90.888,258.083 90.704 C 258.450 90.520,258.900 90.203,259.083 90.000 C 260.246 88.712,260.660 88.809,260.664 90.369 C 260.668 91.714,260.437 91.667,267.000 91.667 C 270.603 91.667,272.807 91.603,273.011 91.494 C 273.503 91.231,273.520 45.554,273.029 45.109 C 272.684 44.797,261.295 44.702,260.542 45.005 M211.917 56.824 C 209.428 57.091,207.879 57.387,206.963 57.769 C 206.439 57.988,205.896 58.167,205.757 58.167 C 204.397 58.167,199.311 62.240,198.387 64.069 C 198.244 64.352,197.992 64.733,197.826 64.917 C 197.480 65.299,197.175 66.071,196.131 69.215 C 195.500 71.115,195.318 76.950,195.830 78.833 C 196.807 82.421,197.249 83.564,198.159 84.849 C 198.445 85.253,198.854 85.846,199.067 86.167 C 200.043 87.630,202.786 89.823,204.608 90.594 C 204.961 90.744,205.550 91.003,205.917 91.171 C 208.540 92.368,216.471 92.958,218.917 92.137 C 219.375 91.983,220.151 91.776,220.641 91.677 C 221.131 91.578,221.693 91.383,221.891 91.244 C 222.088 91.105,222.533 90.915,222.878 90.822 C 223.224 90.728,223.765 90.487,224.080 90.284 C 224.395 90.082,225.012 89.698,225.452 89.432 C 226.943 88.526,230.000 85.280,230.000 84.602 C 230.000 84.490,230.184 84.149,230.408 83.845 C 230.632 83.541,230.865 83.058,230.924 82.771 C 230.984 82.485,231.134 82.090,231.257 81.895 C 231.381 81.699,231.643 80.912,231.840 80.145 C 232.037 79.378,232.276 78.450,232.371 78.083 C 232.998 75.654,232.310 69.350,231.156 66.967 C 230.342 65.283,229.752 64.220,229.389 63.779 C 229.175 63.520,229.000 63.251,229.000 63.181 C 229.000 62.906,226.294 60.320,225.678 60.006 C 225.317 59.822,224.978 59.599,224.923 59.510 C 224.635 59.044,221.355 57.744,219.583 57.394 C 218.942 57.268,218.079 57.091,217.667 57.001 C 216.626 56.775,213.320 56.673,211.917 56.824 M291.083 56.833 C 289.381 57.078,287.677 57.488,287.056 57.801 C 286.704 57.979,286.235 58.180,286.013 58.249 C 284.348 58.765,280.167 62.945,280.167 64.094 C 280.167 64.201,280.032 64.467,279.868 64.686 C 279.005 65.835,278.037 70.462,278.111 73.083 C 278.297 79.654,280.039 84.008,283.598 86.797 C 284.960 87.863,285.396 88.167,285.567 88.167 C 285.670 88.167,286.025 88.312,286.355 88.489 C 290.391 90.652,298.146 89.614,300.522 86.593 C 300.745 86.309,301.020 86.167,301.345 86.167 L 301.833 86.167 301.833 87.305 C 301.833 92.784,299.234 96.388,295.967 95.439 C 295.037 95.168,293.756 94.292,293.431 93.704 C 293.331 93.525,293.009 93.105,292.713 92.772 L 292.177 92.167 285.925 92.167 L 279.673 92.167 279.561 92.612 C 279.059 94.614,283.690 101.333,285.572 101.333 C 285.658 101.333,286.033 101.481,286.406 101.661 C 291.291 104.024,302.187 104.061,307.086 101.731 C 307.545 101.512,307.996 101.333,308.086 101.333 C 308.936 101.333,312.114 98.115,312.947 96.411 C 313.125 96.047,313.357 95.600,313.463 95.417 C 313.570 95.233,313.863 94.521,314.114 93.833 L 314.572 92.583 314.626 75.376 C 314.664 63.329,314.626 58.069,314.501 57.835 C 314.327 57.509,314.159 57.500,308.443 57.500 C 301.604 57.500,301.970 57.415,301.867 59.032 L 301.799 60.104 301.301 60.031 C 301.007 59.988,300.502 59.665,300.071 59.246 C 299.171 58.372,297.215 57.355,296.042 57.152 C 295.560 57.068,294.735 56.925,294.208 56.834 C 293.154 56.652,292.347 56.652,291.083 56.833 M335.833 56.834 C 335.421 56.901,334.521 57.040,333.833 57.143 C 330.015 57.714,325.522 60.497,323.381 63.617 C 322.117 65.459,321.836 65.928,321.649 66.500 C 321.545 66.821,321.325 67.308,321.160 67.583 C 320.996 67.858,320.806 68.383,320.739 68.750 C 320.672 69.117,320.471 69.829,320.292 70.333 C 319.836 71.617,319.693 76.388,320.059 78.083 C 320.533 80.278,320.956 81.830,321.143 82.054 C 321.245 82.178,321.438 82.588,321.572 82.967 C 321.705 83.345,321.955 83.863,322.128 84.119 C 322.301 84.374,322.697 84.958,323.010 85.417 C 323.719 86.458,326.055 88.760,326.833 89.185 C 327.473 89.534,327.790 89.723,328.667 90.277 C 328.987 90.480,329.475 90.697,329.750 90.759 C 330.025 90.822,330.427 90.984,330.644 91.119 C 332.528 92.298,341.030 92.955,343.667 92.126 C 344.171 91.967,344.989 91.761,345.485 91.668 C 345.981 91.575,346.768 91.322,347.235 91.106 C 347.702 90.890,348.271 90.629,348.500 90.525 C 348.942 90.324,349.022 90.277,350.583 89.297 C 351.779 88.547,353.866 86.458,354.606 85.270 C 354.899 84.801,355.337 84.099,355.580 83.711 C 355.823 83.324,356.028 82.782,356.036 82.509 C 356.065 81.485,356.149 81.500,350.324 81.500 C 344.778 81.500,344.412 81.541,343.667 82.251 C 341.801 84.027,337.308 84.444,335.257 83.031 C 333.816 82.038,331.885 78.382,332.485 77.782 C 332.634 77.633,335.670 77.572,344.621 77.537 C 352.973 77.505,356.626 77.436,356.780 77.309 C 357.225 76.939,356.922 71.950,356.340 70.067 C 356.153 69.461,356.000 68.801,356.000 68.601 C 356.000 68.401,355.855 67.953,355.678 67.605 C 355.500 67.257,355.248 66.659,355.118 66.275 C 354.482 64.410,351.848 61.117,350.020 59.902 C 348.898 59.156,347.445 58.362,347.167 58.343 C 347.029 58.333,346.467 58.138,345.917 57.908 C 343.875 57.056,338.185 56.450,335.833 56.834 M341.417 65.853 C 343.303 66.882,345.024 69.585,344.328 70.423 C 344.025 70.789,333.410 70.785,332.888 70.420 L 332.535 70.173 332.976 69.086 C 334.349 65.698,338.336 64.171,341.417 65.853 M215.916 66.762 C 218.346 67.852,219.196 69.728,219.296 74.220 C 219.431 80.351,217.790 82.926,213.833 82.793 C 210.347 82.675,208.916 80.661,208.717 75.594 C 208.510 70.310,209.508 67.739,212.167 66.711 C 213.720 66.110,214.486 66.120,215.916 66.762 M257.122 66.793 C 260.551 68.127,261.994 76.028,259.564 80.167 C 259.430 80.396,259.201 80.817,259.056 81.102 C 258.238 82.716,254.553 83.459,252.819 82.360 C 251.775 81.698,250.527 80.224,250.326 79.417 C 250.235 79.050,250.012 78.225,249.830 77.583 C 248.893 74.279,249.940 69.181,251.902 67.500 C 253.348 66.261,255.132 66.019,257.122 66.793 M298.962 66.954 C 302.087 68.470,303.273 74.876,301.118 78.598 C 300.566 79.552,300.118 80.167,299.975 80.167 C 299.887 80.167,299.540 80.354,299.202 80.583 C 298.255 81.227,295.413 81.208,294.426 80.550 C 289.841 77.500,290.166 68.326,294.917 66.692 C 296.608 66.110,297.316 66.156,298.962 66.954 " stroke="none" fill="#260404" fill-rule="evenodd"></path><path id="path3" d="M16.493 3.501 C 16.077 3.571,15.477 3.787,15.160 3.981 C 14.843 4.174,14.429 4.332,14.241 4.333 C 14.052 4.333,13.644 4.521,13.333 4.750 C 13.023 4.979,12.643 5.167,12.491 5.167 C 12.240 5.167,11.894 5.393,10.474 6.491 C 10.230 6.679,9.966 6.833,9.887 6.833 C 9.703 6.833,7.035 9.510,6.777 9.953 C 6.366 10.659,5.673 11.643,5.520 11.738 C 5.431 11.792,5.312 12.052,5.254 12.315 C 5.196 12.577,4.966 13.041,4.741 13.345 C 4.517 13.649,4.333 14.035,4.333 14.202 C 4.333 14.369,4.127 14.899,3.875 15.378 L 3.417 16.250 3.417 74.000 L 3.417 131.750 3.875 132.622 C 4.127 133.101,4.333 133.631,4.333 133.798 C 4.333 133.965,4.521 134.356,4.750 134.667 C 4.979 134.977,5.167 135.361,5.167 135.520 C 5.167 135.678,5.343 136.020,5.559 136.279 C 5.774 136.538,6.047 136.933,6.164 137.156 C 6.669 138.114,9.182 140.712,10.333 141.466 C 10.838 141.796,11.462 142.239,11.721 142.450 C 11.980 142.661,12.331 142.833,12.500 142.833 C 12.669 142.833,13.020 143.011,13.279 143.228 C 13.538 143.446,14.012 143.679,14.333 143.746 C 14.654 143.814,15.179 144.030,15.500 144.226 L 16.083 144.583 200.000 144.583 L 383.917 144.583 384.849 144.125 C 385.362 143.873,385.892 143.667,386.025 143.667 C 386.159 143.667,386.523 143.479,386.833 143.250 C 387.144 143.021,387.534 142.833,387.699 142.833 C 387.865 142.833,388.144 142.689,388.321 142.513 C 388.497 142.336,388.816 142.100,389.029 141.987 C 390.314 141.309,393.309 138.314,393.987 137.029 C 394.100 136.816,394.336 136.497,394.513 136.321 C 394.689 136.144,394.833 135.865,394.833 135.699 C 394.833 135.534,395.021 135.144,395.250 134.833 C 395.479 134.523,395.667 134.132,395.667 133.965 C 395.667 133.797,395.873 133.268,396.125 132.789 L 396.583 131.917 396.628 74.500 C 396.673 16.861,396.663 15.806,396.102 15.245 C 395.977 15.119,395.821 14.735,395.756 14.391 C 395.692 14.046,395.458 13.550,395.236 13.286 C 395.015 13.023,394.833 12.669,394.833 12.500 C 394.833 12.331,394.661 11.980,394.450 11.721 C 394.239 11.462,393.796 10.838,393.466 10.333 C 392.709 9.178,390.108 6.663,389.156 6.167 C 388.933 6.050,388.619 5.819,388.459 5.652 C 388.300 5.486,387.907 5.277,387.587 5.189 C 387.267 5.101,386.806 4.872,386.563 4.681 C 386.321 4.490,385.980 4.333,385.808 4.333 C 385.635 4.333,385.101 4.127,384.622 3.875 L 383.750 3.417 200.500 3.394 C 99.712 3.382,16.909 3.430,16.493 3.501 M384.111 4.241 C 387.830 5.425,391.246 7.783,392.933 10.331 C 393.147 10.653,393.532 11.217,393.791 11.583 C 394.506 12.600,395.426 14.592,395.908 16.167 L 396.341 17.583 396.292 74.417 L 396.244 131.250 395.723 132.583 C 393.911 137.217,390.417 141.296,387.217 142.513 C 386.982 142.602,386.593 142.809,386.353 142.973 C 386.113 143.137,385.279 143.492,384.500 143.761 L 383.083 144.250 200.333 144.295 L 17.583 144.340 16.167 143.907 C 14.592 143.427,12.601 142.507,11.583 141.791 C 11.217 141.532,10.631 141.133,10.283 140.903 C 8.045 139.426,5.501 135.826,4.287 132.417 L 3.752 130.917 3.708 74.297 L 3.664 17.678 4.184 16.054 C 6.050 10.230,10.052 6.199,15.917 4.236 L 17.583 3.678 199.945 3.672 L 382.306 3.667 384.111 4.241 M44.942 44.971 C 44.690 45.250,44.667 46.571,44.671 60.596 C 44.675 76.335,44.749 78.516,45.332 80.202 C 45.516 80.733,45.667 81.298,45.667 81.457 C 45.667 81.615,45.851 82.121,46.076 82.581 C 46.301 83.041,46.602 83.679,46.744 84.000 C 47.567 85.858,49.733 88.397,51.167 89.184 C 51.487 89.360,52.226 89.803,52.808 90.168 C 53.391 90.534,53.961 90.833,54.075 90.833 C 54.190 90.833,54.620 91.012,55.031 91.231 C 55.442 91.449,56.110 91.680,56.514 91.743 C 56.919 91.806,57.680 92.001,58.205 92.177 C 60.134 92.824,70.262 93.069,72.583 92.526 C 75.762 91.782,78.099 90.947,79.583 90.027 C 80.042 89.743,80.679 89.364,81.000 89.185 C 82.306 88.455,84.544 85.757,85.440 83.833 C 86.320 81.943,86.486 81.513,86.590 80.850 C 86.653 80.447,86.827 79.847,86.977 79.517 C 87.314 78.775,87.497 45.616,87.167 45.000 C 86.883 44.469,73.615 44.480,72.939 45.012 L 72.500 45.358 72.497 59.720 C 72.494 77.145,72.509 76.993,70.557 79.212 C 68.737 81.280,63.763 81.339,61.661 79.317 C 59.441 77.181,59.435 77.127,59.377 59.678 C 59.334 46.588,59.305 45.245,59.056 44.969 C 58.631 44.500,45.368 44.502,44.942 44.971 M136.673 44.989 C 136.399 45.500,136.453 53.674,136.732 54.042 C 136.936 54.310,137.448 54.333,143.235 54.333 L 149.517 54.333 149.759 53.755 C 150.124 52.880,150.109 45.563,149.741 45.037 L 149.481 44.667 143.163 44.667 C 137.087 44.667,136.838 44.679,136.673 44.989 M59.004 60.333 L 59.092 75.417 59.463 76.293 C 59.666 76.776,59.833 77.328,59.833 77.521 C 59.833 78.256,61.545 79.989,62.956 80.682 C 64.204 81.294,68.293 81.383,68.941 80.811 C 69.111 80.662,69.438 80.484,69.667 80.415 C 70.723 80.101,72.197 78.028,72.482 76.458 C 72.577 75.930,72.752 75.330,72.869 75.124 C 73.037 74.831,73.101 71.575,73.167 60.000 L 73.250 45.250 80.125 45.206 L 87.000 45.163 87.000 61.227 C 87.000 75.020,86.965 77.391,86.752 77.994 C 86.616 78.380,86.395 79.373,86.262 80.199 C 86.129 81.025,85.904 81.829,85.762 81.986 C 85.620 82.143,85.452 82.529,85.389 82.844 C 85.327 83.159,85.063 83.709,84.804 84.067 C 84.545 84.424,84.333 84.818,84.333 84.942 C 84.333 85.217,84.207 85.372,82.468 87.229 C 81.707 88.043,80.840 88.813,80.542 88.940 C 80.244 89.067,80.000 89.239,80.000 89.323 C 80.000 89.406,79.742 89.559,79.427 89.663 C 79.112 89.767,78.681 89.986,78.469 90.150 C 78.257 90.313,77.708 90.540,77.250 90.653 C 76.792 90.766,76.295 90.968,76.146 91.103 C 75.997 91.238,75.247 91.449,74.479 91.573 C 73.711 91.696,72.783 91.915,72.417 92.058 C 71.293 92.497,60.849 92.453,59.542 92.003 C 59.015 91.822,58.032 91.596,57.357 91.502 C 56.634 91.400,55.968 91.201,55.734 91.017 C 55.515 90.845,55.071 90.655,54.746 90.594 C 54.422 90.533,53.886 90.299,53.555 90.075 C 53.224 89.850,52.851 89.667,52.726 89.667 C 52.259 89.667,49.882 87.760,49.083 86.745 C 48.808 86.395,48.377 85.868,48.125 85.574 C 47.873 85.280,47.667 84.966,47.667 84.875 C 47.667 84.785,47.524 84.530,47.349 84.308 C 47.175 84.086,46.944 83.578,46.836 83.178 C 46.729 82.778,46.504 82.256,46.337 82.017 C 46.170 81.779,45.987 81.145,45.930 80.608 C 45.873 80.072,45.678 79.308,45.497 78.909 C 45.175 78.203,45.167 77.773,45.167 61.674 L 45.167 45.163 52.042 45.206 L 58.917 45.250 59.004 60.333 M149.628 49.214 C 149.657 51.772,149.610 53.294,149.496 53.507 C 149.324 53.828,149.151 53.836,143.118 53.794 L 136.917 53.750 136.872 49.456 L 136.828 45.163 143.206 45.206 L 149.583 45.250 149.628 49.214 M116.417 56.612 C 114.990 56.790,112.218 57.399,112.000 57.583 C 111.862 57.699,111.563 57.849,111.333 57.916 C 110.567 58.139,109.257 58.973,108.583 59.665 C 108.217 60.042,107.720 60.448,107.480 60.568 L 107.044 60.786 106.958 59.280 C 106.837 57.165,107.377 57.321,100.345 57.373 L 94.426 57.417 94.216 57.833 C 94.050 58.161,94.004 61.791,94.002 74.788 L 94.000 91.326 94.402 91.589 C 94.947 91.946,106.779 91.892,107.214 91.530 C 107.450 91.334,107.485 90.195,107.531 81.197 L 107.583 71.083 108.133 70.086 C 109.953 66.786,114.143 66.422,115.667 69.431 L 116.250 70.583 116.305 80.949 C 116.353 90.131,116.390 91.339,116.622 91.532 C 117.114 91.941,129.019 91.939,129.389 91.530 C 129.888 90.979,129.737 65.408,129.228 64.333 C 129.033 63.921,128.817 63.396,128.749 63.167 C 127.546 59.140,121.580 55.969,116.417 56.612 M120.395 57.330 C 121.614 57.463,122.223 57.617,122.743 57.922 C 123.130 58.148,123.560 58.333,123.700 58.333 C 123.840 58.333,124.237 58.558,124.583 58.833 C 124.929 59.108,125.271 59.333,125.343 59.333 C 125.460 59.333,126.276 60.135,127.035 60.996 C 127.191 61.174,127.472 61.618,127.657 61.982 C 127.843 62.346,128.063 62.686,128.145 62.737 C 128.228 62.788,128.346 63.097,128.407 63.423 C 128.468 63.749,128.702 64.564,128.927 65.233 L 129.335 66.450 129.293 78.933 L 129.250 91.417 123.475 91.460 C 119.997 91.487,117.529 91.439,117.271 91.341 L 116.841 91.178 116.775 81.797 C 116.713 73.056,116.575 69.862,116.236 69.309 C 116.160 69.185,116.038 69.008,115.964 68.917 C 115.890 68.825,115.681 68.551,115.499 68.308 C 114.384 66.818,111.923 66.453,110.083 67.505 C 109.114 68.059,108.167 68.871,108.167 69.147 C 108.167 69.221,108.020 69.451,107.841 69.658 C 107.662 69.864,107.474 70.382,107.423 70.808 C 107.372 71.235,107.256 71.903,107.165 72.294 C 107.067 72.718,107.000 76.675,107.000 82.090 L 107.000 91.175 106.567 91.340 C 106.303 91.440,103.872 91.487,100.359 91.460 L 94.583 91.417 94.538 75.000 C 94.512 65.971,94.533 58.415,94.582 58.208 L 94.673 57.833 100.410 57.833 C 106.987 57.833,106.377 57.645,106.507 59.710 C 106.646 61.915,106.799 61.972,108.396 60.421 C 109.106 59.731,109.748 59.167,109.821 59.167 C 109.895 59.167,110.134 59.028,110.353 58.858 C 110.571 58.688,111.139 58.421,111.614 58.265 C 112.090 58.108,112.503 57.909,112.532 57.821 C 112.599 57.619,114.285 57.341,115.583 57.318 C 116.133 57.308,116.771 57.237,117.000 57.160 C 117.428 57.016,117.595 57.024,120.395 57.330 M136.673 57.656 C 136.302 58.348,136.448 91.460,136.822 91.661 C 137.519 92.033,149.284 91.883,149.671 91.496 C 150.107 91.059,150.124 58.134,149.688 57.609 C 149.306 57.148,136.920 57.193,136.673 57.656 M149.504 58.261 C 149.783 58.995,149.720 91.082,149.439 91.315 C 149.276 91.450,147.462 91.492,143.064 91.460 L 136.917 91.417 136.871 75.000 C 136.846 65.971,136.866 58.415,136.916 58.208 L 137.006 57.833 143.174 57.833 L 149.342 57.833 149.504 58.261 " stroke="none" fill="#f49484" fill-rule="evenodd"></path><path id="path4" d="M15.917 4.236 C 10.052 6.199,6.050 10.230,4.184 16.054 L 3.664 17.678 3.708 74.297 L 3.752 130.917 4.287 132.417 C 5.501 135.826,8.045 139.426,10.283 140.903 C 10.631 141.133,11.217 141.532,11.583 141.791 C 12.601 142.507,14.592 143.427,16.167 143.907 L 17.583 144.340 200.333 144.295 L 383.083 144.250 384.500 143.761 C 385.279 143.492,386.113 143.137,386.353 142.973 C 386.593 142.809,386.982 142.602,387.217 142.513 C 390.417 141.296,393.911 137.217,395.723 132.583 L 396.244 131.250 396.292 74.417 L 396.341 17.583 395.908 16.167 C 395.426 14.592,394.506 12.600,393.791 11.583 C 393.532 11.217,393.147 10.653,392.933 10.331 C 391.246 7.783,387.830 5.425,384.111 4.241 L 382.306 3.667 199.945 3.672 L 17.583 3.678 15.917 4.236 M382.568 4.157 C 382.856 4.335,383.568 4.557,384.151 4.651 C 384.734 4.745,385.337 4.936,385.491 5.076 C 385.646 5.215,386.029 5.417,386.344 5.525 C 386.659 5.632,387.096 5.858,387.314 6.027 C 387.533 6.195,387.811 6.333,387.933 6.333 C 388.055 6.333,388.411 6.558,388.725 6.833 C 389.038 7.108,389.378 7.333,389.481 7.333 C 389.585 7.333,389.832 7.521,390.031 7.750 C 390.230 7.979,390.494 8.167,390.618 8.167 C 390.741 8.167,390.910 8.348,390.995 8.569 C 391.079 8.790,391.302 9.020,391.490 9.080 C 391.679 9.140,391.833 9.295,391.833 9.424 C 391.833 9.553,392.021 9.782,392.250 9.932 C 392.479 10.082,392.667 10.347,392.667 10.521 C 392.667 10.694,392.892 11.072,393.167 11.360 C 393.442 11.647,393.667 11.974,393.667 12.086 C 393.667 12.197,393.819 12.482,394.006 12.720 C 394.193 12.957,394.430 13.398,394.533 13.701 C 394.636 14.003,394.851 14.420,395.011 14.627 C 395.170 14.834,395.353 15.452,395.417 16.000 C 395.483 16.575,395.666 17.166,395.849 17.399 C 396.345 18.029,396.348 129.573,395.853 130.545 C 395.680 130.883,395.488 131.569,395.426 132.068 C 395.363 132.568,395.209 133.063,395.082 133.168 C 394.955 133.273,394.726 133.747,394.572 134.221 C 394.418 134.695,394.165 135.233,394.011 135.417 C 393.857 135.600,393.643 135.956,393.535 136.208 C 393.428 136.460,393.272 136.667,393.188 136.667 C 393.105 136.667,392.916 136.967,392.769 137.333 C 392.623 137.700,392.429 138.000,392.339 138.000 C 392.249 138.000,392.064 138.215,391.928 138.479 C 391.791 138.742,391.527 138.998,391.340 139.047 C 391.153 139.095,391.000 139.253,391.000 139.397 C 391.000 139.541,390.775 139.774,390.500 139.917 C 390.225 140.059,390.000 140.249,390.000 140.339 C 390.000 140.429,389.700 140.623,389.333 140.769 C 388.967 140.916,388.667 141.107,388.667 141.193 C 388.667 141.280,388.417 141.455,388.112 141.582 C 387.807 141.710,387.460 141.931,387.341 142.074 C 387.223 142.217,387.030 142.333,386.913 142.333 C 386.796 142.333,386.292 142.548,385.792 142.811 C 385.293 143.074,384.412 143.372,383.835 143.474 C 383.258 143.575,382.659 143.773,382.505 143.913 C 382.014 144.356,17.964 144.293,17.399 143.849 C 17.166 143.666,16.575 143.483,16.000 143.417 C 15.452 143.353,14.834 143.170,14.627 143.011 C 14.420 142.851,14.003 142.636,13.701 142.533 C 13.398 142.430,12.957 142.193,12.720 142.006 C 12.482 141.819,12.197 141.667,12.086 141.667 C 11.974 141.667,11.647 141.442,11.360 141.167 C 11.072 140.892,10.694 140.667,10.521 140.667 C 10.347 140.667,10.082 140.479,9.932 140.250 C 9.782 140.021,9.553 139.833,9.424 139.833 C 9.295 139.833,9.140 139.679,9.080 139.490 C 9.020 139.302,8.790 139.079,8.569 138.995 C 8.348 138.910,8.167 138.741,8.167 138.618 C 8.167 138.494,7.979 138.230,7.750 138.031 C 7.521 137.832,7.333 137.558,7.333 137.424 C 7.333 137.289,7.108 136.922,6.833 136.609 C 6.558 136.296,6.333 135.966,6.333 135.875 C 6.333 135.785,6.195 135.533,6.027 135.314 C 5.858 135.096,5.632 134.659,5.525 134.344 C 5.417 134.029,5.215 133.646,5.076 133.491 C 4.936 133.337,4.746 132.739,4.653 132.162 C 4.560 131.586,4.338 130.792,4.159 130.399 C 3.656 129.296,3.645 18.102,4.147 17.523 C 4.333 17.308,4.531 16.690,4.633 16.000 C 4.736 15.306,4.941 14.666,5.141 14.411 C 5.326 14.176,5.524 13.771,5.581 13.509 C 5.639 13.248,5.831 12.903,6.009 12.741 C 6.188 12.580,6.333 12.323,6.333 12.170 C 6.333 12.017,6.515 11.721,6.737 11.513 C 6.958 11.304,7.236 10.897,7.353 10.609 C 7.471 10.320,7.702 9.985,7.867 9.866 C 8.032 9.746,8.167 9.540,8.167 9.407 C 8.167 9.275,8.239 9.167,8.327 9.167 C 8.415 9.167,8.868 8.792,9.333 8.333 C 9.799 7.875,10.246 7.500,10.327 7.500 C 10.408 7.500,10.818 7.237,11.239 6.917 C 11.659 6.596,12.103 6.333,12.226 6.333 C 12.348 6.333,12.580 6.188,12.741 6.009 C 12.903 5.831,13.248 5.639,13.509 5.581 C 13.771 5.524,14.176 5.326,14.411 5.141 C 14.666 4.941,15.306 4.736,16.000 4.633 C 16.690 4.531,17.308 4.333,17.523 4.147 C 18.101 3.645,381.756 3.655,382.568 4.157 M44.679 44.679 L 44.167 45.192 44.167 60.826 C 44.167 73.796,44.205 76.491,44.393 76.647 C 44.548 76.776,44.647 77.420,44.707 78.684 C 44.778 80.168,44.859 80.620,45.122 80.976 C 45.303 81.219,45.502 81.764,45.565 82.186 C 45.628 82.608,45.865 83.204,46.090 83.509 C 46.316 83.815,46.500 84.154,46.500 84.262 C 46.500 84.495,47.455 86.107,47.875 86.585 C 48.503 87.297,49.645 88.435,50.103 88.803 C 51.309 89.772,51.899 90.167,52.148 90.170 C 52.296 90.171,52.584 90.349,52.788 90.565 C 52.993 90.781,53.387 91.002,53.665 91.058 C 53.943 91.114,54.375 91.309,54.627 91.493 C 54.892 91.686,55.502 91.874,56.083 91.940 C 56.641 92.004,57.161 92.160,57.260 92.294 C 57.497 92.616,58.632 92.817,60.260 92.826 C 61.173 92.831,61.706 92.912,61.926 93.078 C 62.388 93.427,69.827 93.449,70.381 93.103 C 70.605 92.963,71.467 92.835,72.574 92.777 C 74.019 92.701,74.489 92.614,74.838 92.356 C 75.080 92.177,75.709 91.977,76.236 91.911 C 76.897 91.829,77.327 91.669,77.622 91.396 C 77.867 91.168,78.254 91.000,78.532 91.000 C 78.834 91.000,79.161 90.843,79.402 90.583 C 79.614 90.354,79.900 90.167,80.036 90.167 C 80.173 90.167,80.481 89.985,80.720 89.763 C 80.960 89.541,81.310 89.310,81.499 89.250 C 81.688 89.190,81.961 88.960,82.107 88.737 C 82.253 88.515,82.477 88.333,82.606 88.333 C 82.735 88.333,82.925 88.147,83.029 87.920 C 83.132 87.692,83.356 87.462,83.525 87.409 C 83.695 87.355,83.833 87.247,83.833 87.168 C 83.833 87.090,84.023 86.800,84.254 86.525 C 84.486 86.250,84.761 85.776,84.866 85.471 C 84.971 85.166,85.188 84.823,85.349 84.708 C 85.509 84.593,85.692 84.256,85.756 83.958 C 85.820 83.660,86.009 83.287,86.175 83.129 C 86.342 82.970,86.530 82.483,86.592 82.045 C 86.655 81.608,86.866 80.987,87.061 80.667 L 87.417 80.083 87.461 62.433 C 87.503 46.129,87.485 44.759,87.227 44.475 C 86.535 43.710,72.817 44.072,72.129 44.873 C 72.108 44.897,72.052 52.044,72.004 60.754 L 71.917 76.592 71.542 77.068 C 71.335 77.330,71.167 77.652,71.167 77.783 C 71.167 77.914,70.767 78.428,70.278 78.925 C 67.996 81.244,61.874 80.566,60.993 77.897 C 60.892 77.588,60.694 77.272,60.554 77.193 C 60.060 76.917,59.958 74.230,59.892 59.639 L 59.826 45.194 59.346 44.680 L 58.866 44.167 52.029 44.167 L 45.192 44.167 44.679 44.679 M136.609 44.471 C 136.167 44.960,136.194 54.155,136.638 54.558 C 136.965 54.853,149.163 54.989,149.615 54.702 C 150.302 54.265,150.482 45.446,149.821 44.606 L 149.476 44.167 143.180 44.167 C 137.293 44.167,136.867 44.186,136.609 44.471 M59.056 44.969 C 59.305 45.245,59.334 46.588,59.377 59.678 C 59.435 77.127,59.441 77.181,61.661 79.317 C 63.763 81.339,68.737 81.280,70.557 79.212 C 72.509 76.993,72.494 77.145,72.497 59.720 L 72.500 45.358 72.939 45.012 C 73.615 44.480,86.883 44.469,87.167 45.000 C 87.497 45.616,87.314 78.775,86.977 79.517 C 86.827 79.847,86.653 80.447,86.590 80.850 C 86.486 81.513,86.320 81.943,85.440 83.833 C 84.544 85.757,82.306 88.455,81.000 89.185 C 80.679 89.364,80.042 89.743,79.583 90.027 C 78.099 90.947,75.762 91.782,72.583 92.526 C 70.262 93.069,60.134 92.824,58.205 92.177 C 57.680 92.001,56.919 91.806,56.514 91.743 C 56.110 91.680,55.442 91.449,55.031 91.231 C 54.620 91.012,54.190 90.833,54.075 90.833 C 53.961 90.833,53.391 90.534,52.808 90.168 C 52.226 89.803,51.487 89.360,51.167 89.184 C 49.733 88.397,47.567 85.858,46.744 84.000 C 46.602 83.679,46.301 83.041,46.076 82.581 C 45.851 82.121,45.667 81.615,45.667 81.457 C 45.667 81.298,45.516 80.733,45.332 80.202 C 44.749 78.516,44.675 76.335,44.671 60.596 C 44.667 46.571,44.690 45.250,44.942 44.971 C 45.368 44.502,58.631 44.500,59.056 44.969 M149.741 45.037 C 150.109 45.563,150.124 52.880,149.759 53.755 L 149.517 54.333 143.235 54.333 C 137.448 54.333,136.936 54.310,136.732 54.042 C 136.453 53.674,136.399 45.500,136.673 44.989 C 136.838 44.679,137.087 44.667,143.163 44.667 L 149.481 44.667 149.741 45.037 M114.800 56.315 C 114.461 56.387,114.063 56.545,113.915 56.668 C 113.766 56.791,113.231 56.948,112.724 57.017 C 112.171 57.092,111.557 57.313,111.184 57.571 C 110.844 57.807,110.482 58.000,110.381 58.000 C 110.093 58.000,108.496 59.098,108.230 59.478 C 107.831 60.048,107.500 59.741,107.500 58.803 C 107.500 58.107,107.421 57.895,107.007 57.481 L 106.514 56.988 100.358 57.036 C 94.575 57.080,94.180 57.103,93.851 57.401 L 93.500 57.718 93.500 74.514 L 93.500 91.309 93.946 91.660 C 94.499 92.095,107.102 92.132,107.533 91.700 C 107.705 91.529,107.768 89.329,107.833 81.230 C 107.908 72.026,107.944 70.961,108.185 70.826 C 108.333 70.743,108.549 70.336,108.665 69.921 C 108.782 69.506,108.945 69.167,109.030 69.167 C 109.114 69.167,109.367 68.967,109.593 68.724 C 110.935 67.275,115.315 67.967,115.337 69.631 C 115.339 69.788,115.487 70.104,115.667 70.333 C 115.982 70.736,115.993 71.084,115.996 81.010 C 115.999 89.601,116.038 91.322,116.236 91.593 C 116.517 91.977,128.819 92.198,129.505 91.831 C 129.840 91.651,129.842 91.563,129.796 77.838 L 129.750 64.027 129.390 63.638 C 129.192 63.425,128.944 62.927,128.840 62.533 C 128.735 62.139,128.543 61.776,128.414 61.726 C 128.285 61.676,128.131 61.474,128.071 61.276 C 128.012 61.078,127.824 60.767,127.654 60.583 C 127.483 60.400,127.027 59.894,126.640 59.458 C 126.254 59.023,125.836 58.667,125.713 58.667 C 125.590 58.667,125.447 58.555,125.394 58.418 C 125.342 58.282,124.988 58.077,124.608 57.964 C 124.228 57.852,123.803 57.621,123.665 57.452 C 123.520 57.275,123.097 57.106,122.665 57.052 C 122.253 57.000,121.656 56.801,121.336 56.608 C 120.708 56.230,116.178 56.027,114.800 56.315 M120.637 56.904 C 124.605 57.726,127.878 60.253,128.749 63.167 C 128.817 63.396,129.033 63.921,129.228 64.333 C 129.737 65.408,129.888 90.979,129.389 91.530 C 129.019 91.939,117.114 91.941,116.622 91.532 C 116.390 91.339,116.353 90.131,116.305 80.949 L 116.250 70.583 115.667 69.431 C 114.143 66.422,109.953 66.786,108.133 70.086 L 107.583 71.083 107.531 81.197 C 107.485 90.195,107.450 91.334,107.214 91.530 C 106.779 91.892,94.947 91.946,94.402 91.589 L 94.000 91.326 94.002 74.788 C 94.004 61.791,94.050 58.161,94.216 57.833 L 94.426 57.417 100.345 57.373 C 107.377 57.321,106.837 57.165,106.958 59.280 L 107.044 60.786 107.480 60.568 C 107.720 60.448,108.217 60.042,108.583 59.665 C 109.257 58.973,110.567 58.139,111.333 57.916 C 111.563 57.849,111.862 57.699,112.000 57.583 C 112.218 57.399,114.990 56.790,116.417 56.612 C 117.698 56.453,118.839 56.531,120.637 56.904 M136.625 57.180 C 136.146 57.459,136.176 91.571,136.656 91.827 C 137.243 92.142,149.586 92.056,149.907 91.736 C 150.361 91.281,150.217 57.571,149.760 57.237 C 149.360 56.944,137.121 56.891,136.625 57.180 M149.688 57.609 C 150.124 58.134,150.107 91.059,149.671 91.496 C 149.284 91.883,137.519 92.033,136.822 91.661 C 136.448 91.460,136.302 58.348,136.673 57.656 C 136.920 57.193,149.306 57.148,149.688 57.609 " stroke="none" fill="#ec655c" fill-rule="evenodd"></path></g></svg>