<svg id="svg" version="1.1" xmlns="http://www.w3.org/2000/svg" xmlns:xlink="http://www.w3.org/1999/xlink" width="400" height="400" viewBox="0, 0, 400,400"><g id="svgg"><path id="path0" d="M2.364 2.244 C 1.904 2.797,1.861 397.221,2.320 397.680 C 2.752 398.112,397.263 398.097,397.695 397.665 C 398.126 397.234,398.111 2.751,397.679 2.319 C 397.151 1.791,2.802 1.716,2.364 2.244 M66.838 158.286 C 67.644 158.762,67.996 159.283,67.987 159.986 C 67.908 166.044,68.395 187.989,68.621 188.600 C 69.383 190.656,70.837 191.600,73.242 191.600 C 76.386 191.600,76.707 191.412,77.921 188.846 L 78.985 186.600 79.193 172.485 C 79.368 160.529,79.492 158.312,80.000 157.991 C 81.099 157.298,93.047 157.504,93.771 158.229 C 95.149 159.606,94.581 194.000,93.180 194.000 C 93.020 194.000,92.769 194.640,92.622 195.422 C 92.475 196.205,92.026 197.174,91.623 197.577 C 91.220 197.980,90.735 198.579,90.545 198.909 C 89.930 199.975,86.544 202.305,85.169 202.607 C 84.434 202.768,83.358 203.250,82.780 203.678 C 80.673 205.236,65.189 205.188,63.684 203.620 C 63.308 203.227,62.321 202.783,61.491 202.633 C 60.654 202.482,59.765 202.013,59.495 201.580 C 59.227 201.151,58.782 200.800,58.507 200.800 C 56.946 200.800,54.032 195.987,53.063 191.809 C 51.774 186.247,51.556 159.644,52.790 158.410 C 53.924 157.276,64.964 157.179,66.838 158.286 M150.069 158.262 C 151.076 159.174,151.158 166.785,150.171 167.771 C 149.218 168.725,138.344 168.696,137.549 167.738 C 136.609 166.605,136.796 158.884,137.782 158.164 C 138.987 157.282,149.075 157.363,150.069 158.262 M167.381 159.366 C 169.541 160.269,169.598 160.598,169.628 172.474 C 169.660 184.422,170.010 190.170,170.754 190.914 C 171.083 191.243,173.781 191.460,179.254 191.598 C 189.150 191.847,188.800 191.628,188.800 197.582 C 188.800 203.457,190.207 203.000,172.126 203.000 C 158.105 203.000,157.102 202.953,156.605 202.274 C 155.335 200.538,155.212 161.416,156.473 160.156 C 157.785 158.844,164.899 158.329,167.381 159.366 M262.185 159.368 C 264.323 160.261,264.396 160.975,264.396 181.000 C 264.396 199.316,264.230 201.648,262.882 202.342 C 261.615 202.994,258.217 203.167,255.200 202.734 C 250.892 202.115,249.617 202.195,247.681 203.204 C 241.985 206.174,234.108 202.308,230.846 194.943 C 229.886 192.774,229.077 190.970,229.049 190.933 C 228.671 190.431,226.800 190.423,226.800 190.923 C 226.800 191.923,223.607 197.701,222.284 199.094 C 214.694 207.085,197.976 204.626,193.094 194.800 C 191.751 192.097,191.799 182.924,193.174 179.400 C 197.069 169.419,212.665 166.753,222.045 174.466 C 223.899 175.989,226.800 180.870,226.800 182.463 C 226.800 184.138,228.974 183.372,229.533 181.500 C 232.335 172.120,240.834 167.295,248.015 171.008 C 250.774 172.434,251.586 171.466,251.647 166.671 C 251.696 162.865,251.905 161.497,252.620 160.293 C 253.411 158.960,259.744 158.348,262.185 159.368 M124.028 169.565 C 127.193 169.974,129.250 171.288,131.240 174.172 L 132.600 176.144 132.720 189.193 C 132.838 202.001,132.824 202.262,131.986 203.327 L 131.132 204.413 125.949 204.319 C 118.909 204.192,119.431 205.038,119.279 193.491 C 119.168 185.103,119.086 184.164,118.379 183.170 C 117.950 182.569,117.600 181.789,117.600 181.438 C 117.600 180.340,115.079 180.627,113.641 181.889 L 112.400 182.978 112.400 192.164 C 112.400 204.758,112.622 204.437,104.131 204.113 C 100.442 203.973,98.831 203.757,98.400 203.345 C 97.474 202.461,97.283 171.943,98.196 170.551 C 99.183 169.044,109.325 169.083,110.962 170.600 C 112.294 171.834,112.945 171.855,114.098 170.702 C 115.388 169.412,119.339 168.960,124.028 169.565 M149.911 170.223 L 150.800 170.845 150.800 186.569 C 150.800 206.124,151.450 204.445,143.914 204.360 C 139.397 204.309,138.601 204.201,137.950 203.550 C 137.029 202.629,137.115 203.660,137.006 192.200 C 136.956 186.920,136.873 180.350,136.822 177.600 C 136.726 172.420,137.046 170.761,138.278 170.044 C 139.489 169.340,148.856 169.484,149.911 170.223 M328.514 170.629 C 331.970 171.525,334.574 172.955,335.875 174.673 C 336.494 175.490,337.397 176.590,337.882 177.118 C 339.419 178.791,340.200 181.498,340.200 185.153 C 340.200 190.218,340.249 190.195,329.469 190.218 C 318.230 190.242,316.963 190.749,320.007 194.008 C 321.767 195.892,323.900 196.042,326.800 194.485 C 334.309 190.454,342.452 193.736,337.120 198.645 C 329.658 205.514,318.958 205.690,309.947 199.090 C 306.364 196.466,304.002 186.000,305.999 181.595 C 310.106 172.534,319.051 168.177,328.514 170.629 M286.360 171.184 C 288.720 171.902,289.110 171.918,291.360 171.387 C 295.704 170.363,299.850 170.589,301.184 171.923 L 302.307 173.046 302.608 180.623 C 303.243 196.624,301.805 206.955,298.496 210.170 C 292.834 215.670,276.387 215.318,271.596 209.595 C 268.310 205.670,268.601 204.067,272.692 203.556 C 277.629 202.939,280.171 203.119,281.641 204.190 C 285.485 206.989,287.555 206.341,288.817 201.940 C 289.352 200.074,283.275 199.873,280.107 201.652 C 278.739 202.421,278.730 202.420,278.519 201.612 C 278.379 201.078,277.975 200.800,277.337 200.800 C 274.479 200.800,269.265 195.841,268.152 192.063 C 267.187 188.792,267.516 180.477,268.713 177.847 C 271.608 171.487,278.632 168.835,286.360 171.184 M320.414 180.067 L 319.477 181.333 320.310 182.008 C 322.221 183.555,327.200 183.163,327.200 181.466 C 327.200 178.914,322.051 177.852,320.414 180.067 M206.490 180.802 C 202.554 183.201,203.928 193.025,208.315 193.848 C 212.187 194.574,214.973 190.094,214.151 184.462 C 213.599 180.676,209.729 178.827,206.490 180.802 M243.870 181.300 C 239.139 187.635,244.538 197.821,249.904 192.684 C 252.645 190.060,252.761 183.409,250.109 180.951 C 248.429 179.394,245.157 179.577,243.870 181.300 M282.016 180.564 C 279.363 182.058,279.520 189.681,282.241 191.463 C 287.370 194.824,292.537 186.664,288.469 181.626 C 287.152 179.996,283.957 179.470,282.016 180.564 " stroke="none" fill="#e31b35" fill-rule="evenodd"></path><path id="path1" d="M55.800 159.058 C 53.676 159.626,53.618 160.009,53.612 173.600 C 53.605 188.594,53.914 192.022,55.557 195.179 C 56.804 197.576,58.719 200.000,59.363 200.000 C 59.575 200.000,60.120 200.326,60.574 200.724 C 66.698 206.097,85.211 203.874,90.057 197.184 C 92.905 193.254,93.235 190.898,93.219 174.635 L 93.206 160.600 92.222 159.736 C 91.194 158.832,81.770 158.498,80.931 159.335 C 80.749 159.517,80.499 165.996,80.376 173.733 C 80.097 191.263,79.758 192.335,74.355 192.726 C 67.338 193.233,66.400 190.814,66.400 172.209 C 66.400 158.219,66.786 159.126,60.766 158.959 C 58.474 158.896,56.240 158.940,55.800 159.058 M139.939 159.121 C 138.026 159.346,137.202 165.074,138.805 167.006 C 139.574 167.932,148.606 167.754,149.208 166.800 C 149.771 165.910,149.689 160.669,149.100 159.898 C 148.612 159.258,142.895 158.773,139.939 159.121 M117.521 170.760 C 116.707 170.929,115.788 171.278,115.477 171.536 C 113.761 172.960,111.071 173.226,109.882 172.088 C 108.327 170.599,102.007 170.440,100.129 171.843 L 99.000 172.686 98.895 186.930 L 98.790 201.174 99.975 201.787 C 100.805 202.216,102.345 202.400,105.118 202.400 C 110.757 202.400,110.588 202.673,110.645 193.458 C 110.717 181.984,111.509 180.022,116.078 180.005 C 119.711 179.992,120.314 181.837,120.372 193.137 C 120.422 202.990,120.080 202.400,125.738 202.400 C 132.212 202.400,131.771 203.088,131.935 192.733 C 132.138 179.902,131.866 177.261,130.096 174.868 C 127.468 171.317,122.557 169.713,117.521 170.760 M138.441 172.274 C 137.868 174.012,137.976 200.435,138.562 201.700 C 138.977 202.597,147.765 202.753,148.952 201.884 C 149.601 201.410,149.663 200.209,149.729 186.899 C 149.815 169.460,150.419 171.057,143.661 170.868 L 138.949 170.736 138.441 172.274 " stroke="none" fill="#fbedf1" fill-rule="evenodd"></path><path id="path2" d="M158.673 159.187 C 155.671 159.768,155.812 158.918,155.696 177.114 C 155.581 195.134,155.799 201.173,156.605 202.274 C 157.102 202.953,158.105 203.000,172.126 203.000 C 190.207 203.000,188.800 203.457,188.800 197.582 C 188.800 191.628,189.150 191.847,179.254 191.598 C 173.781 191.460,171.083 191.243,170.754 190.914 C 170.010 190.170,169.660 184.422,169.628 172.474 C 169.610 165.466,169.445 161.258,169.168 160.740 C 168.243 159.012,163.334 158.286,158.673 159.187 M254.820 159.237 C 252.192 159.752,251.722 160.852,251.647 166.671 C 251.586 171.466,250.774 172.434,248.015 171.008 C 240.834 167.295,232.335 172.120,229.533 181.500 C 228.974 183.372,226.800 184.138,226.800 182.463 C 226.800 180.870,223.899 175.989,222.045 174.466 C 212.665 166.753,197.069 169.419,193.174 179.400 C 191.799 182.924,191.751 192.097,193.094 194.800 C 197.976 204.626,214.694 207.085,222.284 199.094 C 223.607 197.701,226.800 191.923,226.800 190.923 C 226.800 190.423,228.671 190.431,229.049 190.933 C 229.077 190.970,229.886 192.774,230.846 194.943 C 234.108 202.308,241.985 206.174,247.681 203.204 C 249.617 202.195,250.892 202.115,255.200 202.734 C 260.649 203.517,263.331 202.833,263.980 200.495 C 264.551 198.440,264.542 163.527,263.970 161.468 C 263.288 159.011,260.027 158.216,254.820 159.237 M319.000 170.556 C 312.686 172.098,308.813 175.387,305.999 181.595 C 304.002 186.000,306.364 196.466,309.947 199.090 C 318.958 205.690,329.658 205.514,337.120 198.645 C 342.452 193.736,334.309 190.454,326.800 194.485 C 323.900 196.042,321.767 195.892,320.007 194.008 C 316.963 190.749,318.230 190.242,329.469 190.218 C 340.249 190.195,340.200 190.218,340.200 185.153 C 340.200 181.498,339.419 178.791,337.882 177.118 C 337.397 176.590,336.494 175.490,335.875 174.673 C 333.114 171.028,325.088 169.070,319.000 170.556 M276.687 170.837 C 265.327 173.512,263.992 194.486,274.829 200.015 C 275.676 200.447,276.804 200.800,277.337 200.800 C 277.975 200.800,278.379 201.078,278.519 201.612 C 278.730 202.420,278.739 202.421,280.107 201.652 C 283.275 199.873,289.352 200.074,288.817 201.940 C 287.555 206.341,285.485 206.989,281.641 204.190 C 280.171 203.119,277.629 202.939,272.692 203.556 C 268.601 204.067,268.310 205.670,271.596 209.595 C 276.387 215.318,292.834 215.670,298.496 210.170 C 301.805 206.955,303.243 196.624,302.608 180.623 L 302.307 173.046 301.184 171.923 C 299.850 170.589,295.704 170.363,291.360 171.387 C 289.110 171.918,288.720 171.902,286.360 171.184 C 283.646 170.359,279.367 170.205,276.687 170.837 M326.078 179.875 C 328.835 182.516,323.414 184.521,320.310 182.008 L 319.477 181.333 320.414 180.067 C 321.695 178.334,324.375 178.243,326.078 179.875 M212.536 181.362 C 216.634 185.461,213.471 194.815,208.315 193.848 C 203.928 193.025,202.554 183.201,206.490 180.802 C 208.609 179.509,210.895 179.721,212.536 181.362 M250.109 180.951 C 252.761 183.409,252.645 190.060,249.904 192.684 C 247.613 194.877,245.450 194.659,243.677 192.057 C 239.339 185.692,244.887 176.111,250.109 180.951 M288.469 181.626 C 292.537 186.664,287.370 194.824,282.241 191.463 C 280.401 190.258,279.485 185.390,280.546 182.459 C 281.598 179.553,286.388 179.049,288.469 181.626 " stroke="none" fill="#39171c" fill-rule="evenodd"></path><path id="path3" d="M0.000 3.200 C 0.000 6.073,0.077 6.400,0.757 6.400 C 1.677 6.400,2.085 5.478,1.752 4.152 C 1.391 2.715,2.631 1.466,4.124 1.765 C 5.447 2.029,6.800 1.433,6.800 0.586 C 6.800 0.117,6.119 0.000,3.400 0.000 L 0.000 0.000 0.000 3.200 M10.400 0.600 C 10.400 0.930,10.580 1.200,10.800 1.200 C 11.020 1.200,11.200 0.930,11.200 0.600 C 11.200 0.270,11.020 0.000,10.800 0.000 C 10.580 0.000,10.400 0.270,10.400 0.600 M20.800 0.600 C 20.800 1.000,21.200 1.200,22.000 1.200 C 22.800 1.200,23.200 1.000,23.200 0.600 C 23.200 0.200,22.800 0.000,22.000 0.000 C 21.200 0.000,20.800 0.200,20.800 0.600 M395.272 0.900 C 395.361 1.522,395.628 1.761,396.139 1.673 C 397.202 1.492,398.400 2.740,398.400 4.029 C 398.400 5.541,398.778 6.400,399.443 6.400 C 399.873 6.400,400.000 5.669,400.000 3.200 L 400.000 0.000 397.572 0.000 C 395.283 0.000,395.152 0.051,395.272 0.900 M0.000 11.400 C 0.000 12.378,0.181 12.800,0.600 12.800 C 1.019 12.800,1.200 12.378,1.200 11.400 C 1.200 10.422,1.019 10.000,0.600 10.000 C 0.181 10.000,0.000 10.422,0.000 11.400 M398.800 14.000 C 398.800 14.800,399.000 15.200,399.400 15.200 C 399.800 15.200,400.000 14.800,400.000 14.000 C 400.000 13.200,399.800 12.800,399.400 12.800 C 399.000 12.800,398.800 13.200,398.800 14.000 M0.000 22.000 C 0.000 22.800,0.200 23.200,0.600 23.200 C 1.000 23.200,1.200 22.800,1.200 22.000 C 1.200 21.200,1.000 20.800,0.600 20.800 C 0.200 20.800,0.000 21.200,0.000 22.000 M53.044 158.437 L 51.981 159.273 52.104 173.737 C 52.261 192.272,52.757 194.885,57.030 199.700 C 57.567 200.305,58.231 200.800,58.507 200.800 C 58.782 200.800,59.227 201.151,59.495 201.580 C 59.765 202.013,60.654 202.482,61.491 202.633 C 62.321 202.783,63.308 203.227,63.684 203.620 C 65.189 205.188,80.673 205.236,82.780 203.678 C 83.358 203.250,84.434 202.768,85.169 202.607 C 86.544 202.305,89.930 199.975,90.545 198.909 C 90.735 198.579,91.220 197.980,91.623 197.577 C 92.026 197.174,92.475 196.205,92.622 195.422 C 92.769 194.640,93.020 194.000,93.180 194.000 C 94.225 194.000,94.400 191.365,94.400 175.651 L 94.400 159.339 93.474 158.470 C 92.182 157.256,80.955 157.124,79.882 158.309 C 79.324 158.926,79.224 160.825,79.117 172.809 L 78.994 186.600 77.926 188.846 C 76.706 191.412,76.386 191.600,73.242 191.600 C 68.440 191.600,68.152 190.447,68.052 170.800 L 67.993 159.400 66.974 158.500 C 65.466 157.168,54.720 157.119,53.044 158.437 M137.782 158.164 C 136.796 158.884,136.609 166.605,137.549 167.738 C 138.344 168.696,149.218 168.725,150.171 167.771 C 151.158 166.785,151.076 159.174,150.069 158.262 C 149.075 157.363,138.987 157.282,137.782 158.164 M65.666 159.982 C 66.339 160.814,66.400 161.821,66.400 172.209 C 66.400 190.814,67.338 193.233,74.355 192.726 C 79.758 192.335,80.097 191.263,80.376 173.733 C 80.499 165.996,80.749 159.517,80.931 159.335 C 81.770 158.498,91.194 158.832,92.222 159.736 L 93.206 160.600 93.219 174.635 C 93.235 190.898,92.905 193.254,90.057 197.184 C 85.211 203.874,66.698 206.097,60.574 200.724 C 60.120 200.326,59.575 200.000,59.363 200.000 C 57.648 200.000,54.486 193.852,53.992 189.557 C 53.266 183.239,53.504 161.143,54.309 160.136 C 55.668 158.436,64.319 158.319,65.666 159.982 M149.100 159.898 C 149.689 160.669,149.771 165.910,149.208 166.800 C 148.606 167.754,139.574 167.932,138.805 167.006 C 137.202 165.074,138.026 159.346,139.939 159.121 C 142.895 158.773,148.612 159.258,149.100 159.898 M116.998 169.558 C 115.697 169.718,114.682 170.118,114.098 170.702 C 112.945 171.855,112.294 171.834,110.962 170.600 C 109.472 169.219,101.063 169.077,98.900 170.396 L 97.600 171.188 97.600 186.572 L 97.600 201.955 98.500 202.946 C 99.343 203.875,99.712 203.950,104.317 204.127 C 112.584 204.445,112.400 204.717,112.400 192.164 L 112.400 182.978 113.641 181.889 C 115.079 180.627,117.600 180.340,117.600 181.438 C 117.600 181.789,117.950 182.569,118.379 183.170 C 119.086 184.164,119.168 185.103,119.279 193.491 C 119.431 205.038,118.909 204.192,125.949 204.319 L 131.132 204.413 131.986 203.327 C 132.824 202.262,132.838 202.001,132.720 189.193 L 132.600 176.144 131.240 174.172 C 128.301 169.912,124.405 168.650,116.998 169.558 M138.278 170.044 C 137.046 170.761,136.726 172.420,136.822 177.600 C 136.873 180.350,136.956 186.920,137.006 192.200 C 137.115 203.660,137.029 202.629,137.950 203.550 C 138.601 204.201,139.397 204.309,143.914 204.360 C 151.450 204.445,150.800 206.124,150.800 186.569 L 150.800 170.845 149.911 170.223 C 148.856 169.484,139.489 169.340,138.278 170.044 M126.452 171.776 C 131.603 174.473,132.189 176.712,131.935 192.733 C 131.771 203.088,132.212 202.400,125.738 202.400 C 120.080 202.400,120.422 202.990,120.372 193.137 C 120.314 181.837,119.711 179.992,116.078 180.005 C 111.509 180.022,110.717 181.984,110.645 193.458 C 110.588 202.673,110.757 202.400,105.118 202.400 C 102.345 202.400,100.805 202.216,99.975 201.787 L 98.790 201.174 98.895 186.930 L 99.000 172.686 100.129 171.843 C 102.007 170.440,108.327 170.599,109.882 172.088 C 111.071 173.226,113.761 172.960,115.477 171.536 C 117.297 170.026,123.363 170.159,126.452 171.776 M149.087 171.715 C 150.174 172.804,150.047 201.084,148.952 201.884 C 147.765 202.753,138.977 202.597,138.562 201.700 C 137.976 200.435,137.868 174.012,138.441 172.274 L 138.949 170.736 143.661 170.868 C 147.537 170.977,148.500 171.127,149.087 171.715 M398.800 386.000 C 398.800 387.511,398.947 388.000,399.400 388.000 C 399.853 388.000,400.000 387.511,400.000 386.000 C 400.000 384.489,399.853 384.000,399.400 384.000 C 398.947 384.000,398.800 384.489,398.800 386.000 M398.652 393.700 C 398.519 394.195,398.408 395.157,398.405 395.838 C 398.400 397.162,397.367 398.400,396.269 398.400 C 395.867 398.400,395.600 398.719,395.600 399.200 C 395.600 399.903,395.867 400.000,397.800 400.000 L 400.000 400.000 400.000 396.400 C 400.000 392.805,399.279 391.361,398.652 393.700 M0.000 397.572 L 0.000 400.000 3.000 400.000 C 5.368 400.000,6.000 399.877,6.000 399.414 C 6.000 398.655,4.642 397.932,3.814 398.250 C 2.943 398.584,1.547 397.256,1.687 396.227 C 1.769 395.631,1.549 395.364,0.900 395.272 C 0.051 395.152,0.000 395.283,0.000 397.572 " stroke="none" fill="#f45c6d" fill-rule="evenodd"></path><path id="path4" d="M6.800 0.580 C 6.800 0.899,6.485 1.344,6.100 1.568 C 5.624 1.845,67.758 1.980,200.445 1.988 L 395.489 2.000 395.298 1.000 L 395.107 0.000 209.153 0.000 C 44.128 0.000,23.200 0.068,23.200 0.600 C 23.200 1.000,22.800 1.200,22.000 1.200 C 21.200 1.200,20.800 1.000,20.800 0.600 C 20.800 0.100,20.000 0.000,16.000 0.000 C 12.000 0.000,11.200 0.100,11.200 0.600 C 11.200 0.930,11.020 1.200,10.800 1.200 C 10.580 1.200,10.400 0.930,10.400 0.600 C 10.400 0.156,9.933 0.000,8.600 0.000 C 7.294 0.000,6.800 0.159,6.800 0.580 M398.023 199.284 C 398.023 324.509,398.161 393.652,398.412 393.807 C 398.625 393.939,398.800 393.767,398.800 393.424 C 398.800 393.081,399.070 392.800,399.400 392.800 C 399.867 392.800,400.000 392.267,400.000 390.400 C 400.000 388.533,399.867 388.000,399.400 388.000 C 398.947 388.000,398.800 387.511,398.800 386.000 C 398.800 384.489,398.947 384.000,399.400 384.000 C 399.932 384.000,400.000 363.244,400.000 199.600 C 400.000 35.956,399.932 15.200,399.400 15.200 C 399.000 15.200,398.800 14.800,398.800 14.000 C 398.800 13.200,399.000 12.800,399.400 12.800 C 399.883 12.800,400.000 12.178,400.000 9.600 C 400.000 7.472,399.847 6.400,399.544 6.400 C 399.293 6.400,398.849 6.085,398.556 5.700 C 398.113 5.117,398.024 37.500,398.023 199.284 M1.600 6.000 C 1.600 6.220,1.240 6.400,0.800 6.400 C 0.119 6.400,0.000 6.667,0.000 8.200 C 0.000 9.533,0.156 10.000,0.600 10.000 C 1.019 10.000,1.200 10.422,1.200 11.400 C 1.200 12.378,1.019 12.800,0.600 12.800 C 0.107 12.800,0.000 13.511,0.000 16.800 C 0.000 20.089,0.107 20.800,0.600 20.800 C 1.000 20.800,1.200 21.200,1.200 22.000 C 1.200 22.800,1.000 23.200,0.600 23.200 C 0.068 23.200,0.000 44.128,0.000 209.153 L 0.000 395.107 1.000 395.298 L 2.000 395.489 2.000 200.545 C 2.000 93.325,1.910 5.600,1.800 5.600 C 1.690 5.600,1.600 5.780,1.600 6.000 M98.349 170.265 C 97.847 170.874,97.885 170.887,98.800 170.411 C 100.141 169.714,100.242 169.600,99.516 169.600 C 99.176 169.600,98.651 169.899,98.349 170.265 M5.300 398.432 C 5.685 398.656,6.000 399.101,6.000 399.420 C 6.000 399.926,30.872 400.000,200.753 400.000 L 395.507 400.000 395.698 399.000 L 395.889 398.000 200.245 398.012 C 67.151 398.020,4.824 398.155,5.300 398.432 " stroke="none" fill="#f5546d" fill-rule="evenodd"></path></g></svg>